<?xml version="1.0" encoding="UTF-8" standalone="no" ?>
<!DOCTYPE svg PUBLIC "-//W3C//DTD SVG 1.1//EN" "http://www.w3.org/Graphics/SVG/1.1/DTD/svg11.dtd">
<svg xmlns="http://www.w3.org/2000/svg" xmlns:xlink="http://www.w3.org/1999/xlink" version="1.1" width="1in" height="1in" viewBox="0 0 500 500" xml:space="preserve">
<desc>Created with Fabric.js 4.6.0</desc>
<defs>
</defs>
<g transform="matrix(3.66 0 0 3.44 250 250)" id="_c924-KlPINshquCfE70A"  >
<path style="stroke: rgb(0,0,0); stroke-width: 1; stroke-dasharray: none; stroke-linecap: butt; stroke-dashoffset: 0; stroke-linejoin: miter; stroke-miterlimit: 4; fill: rgb(255,255,255); fill-opacity: 0; fill-rule: nonzero; opacity: 1;" vector-effect="non-scaling-stroke"  transform=" translate(0, 0)" d="M -56.03217 -44.77212 L -64.07507 -26.27346 L -61.6622 -12.06434 L -68.09652 9.38338 L -56.03218 17.15818 L -61.662209999999995 35.12065 L -56.03218 44.50403 L -34.58445999999999 50.40215 L -18.230569999999993 56.56837 L -2.9490699999999936 70.77749 L 14.209110000000008 72.38607 L 29.222510000000007 64.61127 L 26.54154000000001 58.713150000000006 L 41.28685000000001 48.52548 L 52.01071000000001 50.40216 L 60.85789000000001 35.12066 L 55.227860000000014 25.46919 L 63.806950000000015 17.1582 L 68.09649000000002 -9.919550000000001 L 57.90882000000002 -19.302930000000003 L 61.93027000000002 -37.53349 L 52.01070000000002 -49.06164 L 39.67826000000002 -46.916869999999996 L 26.541530000000023 -63.53885 L 26.541530000000023 -69.70506999999999 L 12.868610000000023 -72.38604 L -2.9490799999999773 -67.02411 L -18.230579999999975 -67.02411 L -24.664899999999975 -69.70508 L -31.099219999999974 -61.39408999999999 L -45.576429999999974 -55.76405999999999 z" stroke-linecap="round" />
</g>
</svg>