<?xml version="1.0" encoding="UTF-8" standalone="no" ?>
<!DOCTYPE svg PUBLIC "-//W3C//DTD SVG 1.1//EN" "http://www.w3.org/Graphics/SVG/1.1/DTD/svg11.dtd">
<svg xmlns="http://www.w3.org/2000/svg" xmlns:xlink="http://www.w3.org/1999/xlink" version="1.1" width="1in" height="1in" viewBox="0 0 500 500" xml:space="preserve">
<desc>Created with Fabric.js 4.6.0</desc>
<defs>
</defs>
<g transform="matrix(3.55 0 0 3.44 250.03 250.03)" id="-pNEeAKXGUYFm4E9bvuFV"  >
<path style="stroke: rgb(0,0,0); stroke-width: 1; stroke-dasharray: none; stroke-linecap: butt; stroke-dashoffset: 0; stroke-linejoin: miter; stroke-miterlimit: 4; fill: rgb(255,255,255); fill-opacity: 0; fill-rule: nonzero; opacity: 1;" vector-effect="non-scaling-stroke"  transform=" translate(0, 0)" d="M -4.72313 70.84691 L -16.44951 53.90879999999999 L -51.30293 40.228019999999994 L -70.19544 15.146589999999993 L -60.09772 -8.306180000000008 L -63.680780000000006 -32.41041000000001 L -51.30293 -43.15960000000001 L -34.36482 -38.27361000000001 L -37.296420000000005 -59.44625000000001 L -25.895770000000006 -61.40065000000001 L -22.638440000000006 -57.81759000000001 L -2.443000000000005 -64.98371000000002 L 15.472309999999997 -72.47557000000002 L 29.15309 -64.98371000000002 L 35.01628 -47.719870000000014 L 59.446250000000006 -41.205210000000015 L 63.680780000000006 -24.267100000000013 L 59.446250000000006 -15.472310000000013 L 70.19544 7.0032599999999885 L 63.680780000000006 20.35830999999999 L 48.697070000000004 26.22149999999999 L 50.32573000000001 45.439739999999986 L 41.20521000000001 55.53745999999999 L 23.289900000000006 55.53745999999999 L 21.009770000000007 64.65798 L 8.957650000000006 72.47556999999999 z" stroke-linecap="round" />
</g>
</svg>